<svg width="47" height="59" viewBox="0 0 47 59" fill="none" xmlns="http://www.w3.org/2000/svg">
<path id="Vector" d="M34.75 6.99988H40.375C41.8668 6.99988 43.2976 7.59251 44.3525 8.6474C45.4074 9.70229 46 11.133 46 12.6249V51.9999C46 53.4917 45.4074 54.9225 44.3525 55.9774C43.2976 57.0322 41.8668 57.6249 40.375 57.6249H6.625C5.13316 57.6249 3.70242 57.0322 2.64752 55.9774C1.59263 54.9225 1 53.4917 1 51.9999V12.6249C1 11.133 1.59263 9.70229 2.64752 8.6474C3.70242 7.59251 5.13316 6.99988 6.625 6.99988H12.25M15.0625 1.37488H31.9375C33.4908 1.37488 34.75 2.63408 34.75 4.18738V9.81238C34.75 11.3657 33.4908 12.6249 31.9375 12.6249H15.0625C13.5092 12.6249 12.25 11.3657 12.25 9.81238V4.18738C12.25 2.63408 13.5092 1.37488 15.0625 1.37488Z" stroke="#B8B8B8" stroke-width="2" stroke-linecap="round" stroke-linejoin="round"/>
</svg>
