<svg width="22" height="25" viewBox="0 0 22 25" fill="none" xmlns="http://www.w3.org/2000/svg">
<path d="M18.7817 3.21569C16.7076 1.14206 13.9502 0 11.0083 0C4.94456 0.0040503 0.00785513 4.9437 0.00343662 11.0104L0 12.8746L1.44878 11.8871C2.43435 11.2156 3.5758 10.8607 4.75026 10.8607C5.1008 10.8607 5.45477 10.8927 5.80211 10.9561C6.89717 11.1555 7.87881 11.6512 8.67365 12.3962C8.85579 11.9949 9.07021 11.6048 9.3233 11.233C9.42713 11.0804 9.53686 10.9336 9.65039 10.7904C8.64898 9.94471 7.44617 9.37558 6.13326 9.13649C5.67557 9.05328 5.20954 9.01118 4.74793 9.01118C3.79182 9.01118 2.86037 9.18657 1.97299 9.53281C2.69149 5.13087 6.51484 1.85258 11.0163 1.84927C13.4562 1.84927 15.7495 2.79912 17.4743 4.52345C18.8503 5.89932 19.7306 7.61996 20.0343 9.51784C19.1466 9.17111 18.2114 8.99363 17.2496 8.98982L17.1148 8.98921C17.0163 8.99117 16.9185 8.99326 16.8226 8.99878C16.6546 9.00737 16.4877 9.02259 16.3223 9.04174C16.273 9.04714 16.2245 9.05487 16.1757 9.06162C16.0572 9.07758 15.9393 9.0955 15.8226 9.11649C15.7708 9.12594 15.7192 9.13637 15.6679 9.14668C15.549 9.17086 15.431 9.19774 15.3143 9.2272C15.2721 9.238 15.2299 9.24806 15.188 9.25935C15.0406 9.29924 14.8945 9.3433 14.7506 9.39154C14.742 9.39448 14.733 9.39694 14.7244 9.39976C14.3975 9.51133 14.0806 9.64524 13.7742 9.79927C13.7659 9.80357 13.7576 9.80798 13.749 9.81228C13.6057 9.88494 13.4653 9.96263 13.327 10.0444C13.3157 10.0511 13.3041 10.058 13.2927 10.0649C12.5692 10.4986 11.9217 11.0549 11.3762 11.7194C11.3536 11.7467 11.3311 11.774 11.3088 11.8017C11.1905 11.95 11.0752 12.1016 10.9671 12.2603C10.8752 12.3953 10.7899 12.5331 10.7071 12.6724C10.6884 12.7042 10.6698 12.7363 10.6515 12.7684C10.5762 12.8996 10.5041 13.0325 10.437 13.167C10.4332 13.1748 10.4294 13.182 10.4256 13.1897C10.2697 13.5046 10.1374 13.8282 10.0271 14.1585C10.0271 14.1587 10.0269 14.1589 10.0269 14.1592V14.1596C9.75668 14.9697 9.6256 15.8191 9.63947 16.6786C9.63983 16.7128 9.63983 16.7469 9.64106 16.7811C9.6429 16.8479 9.64622 16.9149 9.65002 16.982C9.65297 17.0354 9.6564 17.0885 9.66033 17.1415C9.6645 17.1981 9.66905 17.2548 9.67481 17.3115C9.68156 17.3806 9.68979 17.4495 9.6985 17.5186C9.7039 17.5626 9.70869 17.6068 9.71519 17.6505C9.73164 17.7655 9.75005 17.8802 9.77178 17.995C10.1446 19.9663 11.2552 21.6849 12.899 22.8347L13.1092 22.9691L13.1109 22.965C14.0448 23.5721 15.116 23.9704 16.2246 24.1209L16.3747 24.1411L17.4897 22.3518L17.0888 22.3408C14.0038 22.2562 11.4943 19.6765 11.4943 16.5901C11.4943 13.5524 13.8682 11.0298 16.8977 10.8471L17.0894 10.8397C18.3175 10.8087 19.5276 11.1713 20.5548 11.8707L21.9969 12.8522L22 10.9977C22.0023 8.05703 20.8594 5.29325 18.7817 3.21569Z" fill="white"/>
</svg>
