<svg width="119" height="120" viewBox="0 0 119 120" fill="none" xmlns="http://www.w3.org/2000/svg">
<path d="M50.6045 0.711319L48.8063 18.5626C45.1324 19.5419 41.6502 20.9881 38.436 22.8511L24.5463 11.5L11.4788 24.5675L22.8299 38.4619C20.9669 41.6771 19.5106 45.1573 18.5317 48.8324L0.690094 50.6257V69.1116L18.5414 70.9049C19.5202 74.5767 20.9683 78.0578 22.8299 81.2705L11.4788 95.165L24.5463 108.233L38.4408 96.8813C41.6534 98.7429 45.1345 100.191 48.8063 101.17L50.5997 119.021H69.0856L70.8789 101.179C74.5539 100.201 78.0341 98.7445 81.2493 96.8813L95.1439 108.233L108.211 95.165L96.8601 81.2752C98.7232 78.0611 100.169 74.5788 101.149 70.9049L119 69.1116V50.6257L101.158 48.8324C100.179 45.1553 98.7246 41.674 96.8601 38.4573L108.211 24.5676L95.1438 11.5L81.254 22.8511C78.0374 20.9866 74.5559 19.5324 70.8789 18.5529L69.0856 0.711319H50.6045ZM59.845 42.765C69.2888 42.765 76.9464 50.4225 76.9464 59.8663C76.9464 69.3101 69.2888 76.9676 59.845 76.9676C50.4013 76.9676 42.7437 69.3101 42.7437 59.8663C42.7437 50.4225 50.4013 42.765 59.845 42.765Z" fill="black"/>
</svg>
