<svg width="221" height="221" viewBox="0 0 221 221" fill="none" xmlns="http://www.w3.org/2000/svg">
<mask id="path-1-inside-1_1_40" fill="white">
<path d="M220.845 107.205C220.773 105.868 220.235 104.599 219.326 103.624C218.416 102.649 217.194 102.03 215.876 101.878L202.264 99.6537C201.652 99.5523 201.089 99.2538 200.658 98.8028C200.228 98.3517 199.953 97.7723 199.875 97.1508C199.615 95.4626 199.345 93.71 198.973 92.0486C198.853 91.4442 198.923 90.8173 199.174 90.2552C199.424 89.6931 199.842 89.2239 200.369 88.9133L212.463 82.1335C213.663 81.5155 214.597 80.4735 215.087 79.2056C215.576 77.9378 215.587 76.5326 215.117 75.2572L213.02 69.4154C212.56 68.1357 211.649 67.0722 210.461 66.4285C209.273 65.7847 207.891 65.6059 206.58 65.9263L193.017 68.6061C192.41 68.7164 191.784 68.6301 191.229 68.3596C190.674 68.089 190.218 67.6482 189.927 67.1001C189.136 65.6048 188.276 64.0827 187.379 62.5874C187.053 62.0546 186.9 61.4324 186.942 60.8077C186.984 60.183 187.218 59.5872 187.612 59.1037L196.637 48.583C197.553 47.5879 198.079 46.2903 198.117 44.9323C198.156 43.5744 197.703 42.2488 196.844 41.2029L192.905 36.4276C192.048 35.3795 190.836 34.6897 189.505 34.4916C188.173 34.2936 186.816 34.6015 185.696 35.3557L173.82 42.5535C173.293 42.872 172.679 43.0111 172.069 42.9503C171.458 42.8895 170.882 42.632 170.428 42.2159C169.116 41.0529 167.8 39.9327 166.515 38.8984C166.032 38.5136 165.683 37.9836 165.519 37.3851C165.355 36.7866 165.384 36.1508 165.602 35.5701L170.518 22.4929C171.053 21.2451 171.116 19.8423 170.694 18.5509C170.272 17.2595 169.395 16.1696 168.23 15.488L162.879 12.3527C161.711 11.6734 160.337 11.4525 159.019 11.7323C157.7 12.0122 156.53 12.7731 155.733 13.8695L147.053 24.8565C146.742 25.3365 146.275 25.6916 145.732 25.86C145.189 26.0284 144.604 25.9995 144.08 25.7783C143.751 25.6443 141.017 24.5134 138.888 23.7953C138.304 23.6031 137.797 23.2274 137.439 22.7231C137.082 22.2187 136.894 21.6122 136.903 20.9923L137.11 7.02002C137.184 5.65571 136.763 4.31096 135.925 3.2376C135.088 2.16423 133.891 1.43586 132.56 1.18888L126.482 0.116983C125.157 -0.114007 123.795 0.148259 122.647 0.855043C121.5 1.56183 120.646 2.66507 120.244 3.95975L115.731 17.2567C115.529 17.8489 115.143 18.3593 114.63 18.7118C114.118 19.0643 113.506 19.2401 112.886 19.2129H107.71C107.096 19.2232 106.494 19.039 105.99 18.6862C105.485 18.3333 105.103 17.8296 104.896 17.246L100.405 4.02406C100.01 2.71992 99.1573 1.60592 98.0071 0.890672C96.857 0.175421 95.488 -0.0920238 94.1565 0.138421L88.0727 1.21032C86.7491 1.4542 85.5582 2.17495 84.7214 3.2386C83.8846 4.30225 83.4587 5.63645 83.523 6.99323L83.7354 21.0137C83.7396 21.643 83.5424 22.2568 83.1732 22.7638C82.804 23.2708 82.2824 23.6439 81.6862 23.8274C80.4758 24.3044 77.832 25.3174 76.6376 25.7729C75.5758 26.1588 74.4132 25.7354 73.4523 24.6474L64.8202 13.9284C64.0291 12.8326 62.8662 12.0691 61.5533 11.7834C60.2403 11.4978 58.8691 11.71 57.7012 12.3795L52.3605 15.5041C51.1822 16.1869 50.2959 17.2858 49.8724 18.5891C49.449 19.8924 49.5183 21.3078 50.0671 22.5626L54.9778 35.6076C55.192 36.1896 55.2201 36.8247 55.0582 37.4236C54.8964 38.0225 54.5526 38.5552 54.0753 38.9466C52.7852 40.0185 51.4634 41.0904 50.1468 42.2802C49.6947 42.6931 49.1236 42.9491 48.5171 43.0108C47.9105 43.0726 47.3003 42.9367 46.7757 42.6232L35.038 35.286C33.9113 34.5448 32.5551 34.2446 31.2245 34.442C29.8939 34.6394 28.6806 35.3207 27.8128 36.3579L23.8843 41.1279C23.0124 42.1662 22.5505 43.4925 22.5867 44.8531C22.6229 46.2138 23.1549 47.5131 24.0807 48.5026L33.1534 59.0072C33.5558 59.481 33.7963 60.0731 33.8393 60.6958C33.8824 61.3184 33.7256 61.9384 33.3923 62.4641C32.4845 63.9219 31.6192 65.4547 30.8335 66.9875C30.5395 67.5389 30.0802 67.9821 29.5213 68.2537C28.9624 68.5252 28.3327 68.611 27.7225 68.4989L14.1798 65.8567C12.8686 65.5372 11.4868 65.7164 10.2981 66.3599C9.10937 67.0035 8.19696 68.0663 7.73498 69.3457L5.61147 75.1768C5.14091 76.4537 5.15129 77.8606 5.64064 79.1302C6.12998 80.3999 7.06421 81.4438 8.26585 82.0638L20.3592 88.8436C20.9031 89.1466 21.3345 89.6201 21.5883 90.1925C21.8421 90.7648 21.9045 91.4051 21.7661 92.0164L21.644 92.681C21.3626 94.1816 21.1131 95.6019 20.8636 97.1133C20.7792 97.7269 20.5047 98.2979 20.0794 98.7446C19.6542 99.1912 19.0999 99.4907 18.4959 99.6001L4.85231 101.824C3.51953 101.991 2.29226 102.641 1.39945 103.654C0.506638 104.667 0.00925571 105.973 9.05181e-05 107.329V113.535C-0.00768194 114.897 0.485337 116.213 1.38369 117.229C2.28204 118.244 3.5218 118.888 4.86293 119.034L18.4959 121.253C19.1085 121.353 19.6723 121.651 20.103 122.103C20.5337 122.554 20.808 123.134 20.8848 123.755C21.1449 125.449 21.4157 127.196 21.7873 128.858C21.907 129.462 21.8369 130.089 21.5865 130.651C21.3362 131.213 20.9183 131.682 20.3911 131.993L8.30301 138.783C7.10218 139.401 6.16823 140.443 5.67881 141.711C5.18939 142.979 5.17865 144.384 5.64863 145.66L7.77214 151.502C8.23306 152.78 9.14447 153.843 10.3323 154.487C11.5201 155.13 12.9012 155.31 14.2117 154.991L27.7756 152.338C28.3821 152.227 29.0077 152.314 29.5627 152.584C30.1177 152.855 30.5736 153.296 30.8653 153.844C31.6616 155.344 32.5216 156.866 33.4135 158.356C33.7409 158.889 33.8945 159.511 33.8526 160.136C33.8107 160.761 33.5754 161.357 33.1799 161.84L24.155 172.366C23.2289 173.352 22.691 174.645 22.6421 176.003C22.5932 177.361 23.0368 178.69 23.8896 179.741L27.8234 184.516C28.6803 185.564 29.892 186.254 31.2238 186.452C32.5556 186.65 33.9128 186.342 35.0327 185.588L46.9084 178.39C47.435 178.072 48.049 177.933 48.6598 177.993C49.2707 178.054 49.8459 178.312 50.3007 178.728C51.6173 179.891 52.9551 181.011 54.2133 182.045C54.6962 182.43 55.0451 182.96 55.2093 183.559C55.3735 184.157 55.3444 184.793 55.1264 185.374L50.2105 198.451C49.6751 199.699 49.6124 201.101 50.0342 202.393C50.456 203.684 51.333 204.774 52.4986 205.456L57.8657 208.586C59.0315 209.265 60.4046 209.487 61.7221 209.208C63.0395 208.929 64.2088 208.169 65.006 207.074L73.7921 196.168C74.53 195.24 75.7032 194.828 76.5739 195.181C78.416 195.953 79.6529 196.387 81.8455 197.127C82.4295 197.32 82.9374 197.695 83.2955 198.199C83.6535 198.704 83.8429 199.31 83.8363 199.93L83.6239 213.892C83.5523 215.255 83.9743 216.599 84.8114 217.672C85.6485 218.745 86.8434 219.474 88.1735 219.723L94.2521 220.795C95.5766 221.027 96.9396 220.765 98.0871 220.058C99.2347 219.351 100.089 218.247 100.49 216.952L105.002 203.676C105.209 203.087 105.596 202.58 106.108 202.228C106.619 201.876 107.229 201.698 107.848 201.72H113.024C113.638 201.709 114.24 201.893 114.745 202.246C115.25 202.599 115.632 203.103 115.838 203.687L120.334 216.909C120.682 218.057 121.386 219.062 122.341 219.776C123.297 220.491 124.454 220.878 125.643 220.88C125.96 220.881 126.276 220.852 126.588 220.795L132.677 219.723C134 219.478 135.189 218.756 136.025 217.693C136.861 216.629 137.286 215.296 137.221 213.94L137.009 199.919C137.005 199.302 137.196 198.699 137.553 198.198C137.911 197.697 138.418 197.323 139 197.132C141.038 196.441 142.466 195.884 143.73 195.396L144.048 195.267C145.673 194.699 146.453 195.342 146.952 195.969L155.844 207.026C156.641 208.12 157.81 208.878 159.126 209.157C160.442 209.436 161.814 209.215 162.979 208.537L168.325 205.413C169.495 204.731 170.374 203.638 170.796 202.343C171.219 201.048 171.153 199.641 170.613 198.392L165.708 185.347C165.492 184.766 165.462 184.13 165.623 183.531C165.784 182.932 166.128 182.399 166.605 182.008C167.895 180.936 169.217 179.864 170.534 178.674C170.989 178.26 171.563 178.004 172.173 177.945C172.783 177.885 173.395 178.024 173.921 178.342L185.807 185.524C186.934 186.265 188.29 186.565 189.621 186.368C190.951 186.17 192.165 185.489 193.032 184.452L196.961 179.682C197.832 178.644 198.294 177.319 198.258 175.959C198.222 174.6 197.69 173.301 196.765 172.312L187.708 161.77C187.305 161.297 187.065 160.704 187.022 160.082C186.979 159.459 187.136 158.839 187.469 158.313C188.377 156.861 189.242 155.328 190.028 153.79C190.323 153.24 190.783 152.799 191.341 152.527C191.9 152.256 192.529 152.169 193.139 152.279L206.665 154.942C207.977 155.262 209.358 155.083 210.547 154.439C211.736 153.796 212.648 152.733 213.11 151.453L215.207 145.622C215.677 144.346 215.667 142.94 215.178 141.671C214.688 140.403 213.754 139.36 212.553 138.741L200.449 131.95C199.913 131.644 199.488 131.172 199.239 130.603C198.989 130.035 198.928 129.4 199.063 128.793L199.185 128.123C199.467 126.623 199.716 125.208 199.966 123.696C200.05 123.083 200.325 122.512 200.75 122.065C201.175 121.618 201.729 121.319 202.333 121.21L215.977 118.991C217.313 118.827 218.544 118.177 219.44 117.163C220.336 116.149 220.836 114.84 220.845 113.481V107.205ZM65.6112 166.878C57.2346 160.073 50.4805 151.454 45.8482 141.659C41.2159 131.863 38.8241 121.141 38.8496 110.287C38.8751 99.4323 41.3172 88.7224 45.9954 78.9492C50.6736 69.1759 57.4682 60.5894 65.8767 53.8246L97.7293 110.426L65.6112 166.878ZM110.423 182.871C101.618 182.879 92.889 181.234 84.6804 178.02L116.793 121.601H181.146C175.832 156.255 146.145 182.871 110.423 182.871ZM116.825 99.316L84.9989 42.7733C93.1159 39.6417 101.733 38.0395 110.423 38.0462C146.145 38.0462 175.832 64.6615 181.146 99.316H116.825Z"/>
</mask>
<path d="M220.845 107.205C220.773 105.868 220.235 104.599 219.326 103.624C218.416 102.649 217.194 102.03 215.876 101.878L202.264 99.6537C201.652 99.5523 201.089 99.2538 200.658 98.8028C200.228 98.3517 199.953 97.7723 199.875 97.1508C199.615 95.4626 199.345 93.71 198.973 92.0486C198.853 91.4442 198.923 90.8173 199.174 90.2552C199.424 89.6931 199.842 89.2239 200.369 88.9133L212.463 82.1335C213.663 81.5155 214.597 80.4735 215.087 79.2056C215.576 77.9378 215.587 76.5326 215.117 75.2572L213.02 69.4154C212.56 68.1357 211.649 67.0722 210.461 66.4285C209.273 65.7847 207.891 65.6059 206.58 65.9263L193.017 68.6061C192.41 68.7164 191.784 68.6301 191.229 68.3596C190.674 68.089 190.218 67.6482 189.927 67.1001C189.136 65.6048 188.276 64.0827 187.379 62.5874C187.053 62.0546 186.9 61.4324 186.942 60.8077C186.984 60.183 187.218 59.5872 187.612 59.1037L196.637 48.583C197.553 47.5879 198.079 46.2903 198.117 44.9323C198.156 43.5744 197.703 42.2488 196.844 41.2029L192.905 36.4276C192.048 35.3795 190.836 34.6897 189.505 34.4916C188.173 34.2936 186.816 34.6015 185.696 35.3557L173.82 42.5535C173.293 42.872 172.679 43.0111 172.069 42.9503C171.458 42.8895 170.882 42.632 170.428 42.2159C169.116 41.0529 167.8 39.9327 166.515 38.8984C166.032 38.5136 165.683 37.9836 165.519 37.3851C165.355 36.7866 165.384 36.1508 165.602 35.5701L170.518 22.4929C171.053 21.2451 171.116 19.8423 170.694 18.5509C170.272 17.2595 169.395 16.1696 168.23 15.488L162.879 12.3527C161.711 11.6734 160.337 11.4525 159.019 11.7323C157.7 12.0122 156.53 12.7731 155.733 13.8695L147.053 24.8565C146.742 25.3365 146.275 25.6916 145.732 25.86C145.189 26.0284 144.604 25.9995 144.08 25.7783C143.751 25.6443 141.017 24.5134 138.888 23.7953C138.304 23.6031 137.797 23.2274 137.439 22.7231C137.082 22.2187 136.894 21.6122 136.903 20.9923L137.11 7.02002C137.184 5.65571 136.763 4.31096 135.925 3.2376C135.088 2.16423 133.891 1.43586 132.56 1.18888L126.482 0.116983C125.157 -0.114007 123.795 0.148259 122.647 0.855043C121.5 1.56183 120.646 2.66507 120.244 3.95975L115.731 17.2567C115.529 17.8489 115.143 18.3593 114.63 18.7118C114.118 19.0643 113.506 19.2401 112.886 19.2129H107.71C107.096 19.2232 106.494 19.039 105.99 18.6862C105.485 18.3333 105.103 17.8296 104.896 17.246L100.405 4.02406C100.01 2.71992 99.1573 1.60592 98.0071 0.890672C96.857 0.175421 95.488 -0.0920238 94.1565 0.138421L88.0727 1.21032C86.7491 1.4542 85.5582 2.17495 84.7214 3.2386C83.8846 4.30225 83.4587 5.63645 83.523 6.99323L83.7354 21.0137C83.7396 21.643 83.5424 22.2568 83.1732 22.7638C82.804 23.2708 82.2824 23.6439 81.6862 23.8274C80.4758 24.3044 77.832 25.3174 76.6376 25.7729C75.5758 26.1588 74.4132 25.7354 73.4523 24.6474L64.8202 13.9284C64.0291 12.8326 62.8662 12.0691 61.5533 11.7834C60.2403 11.4978 58.8691 11.71 57.7012 12.3795L52.3605 15.5041C51.1822 16.1869 50.2959 17.2858 49.8724 18.5891C49.449 19.8924 49.5183 21.3078 50.0671 22.5626L54.9778 35.6076C55.192 36.1896 55.2201 36.8247 55.0582 37.4236C54.8964 38.0225 54.5526 38.5552 54.0753 38.9466C52.7852 40.0185 51.4634 41.0904 50.1468 42.2802C49.6947 42.6931 49.1236 42.9491 48.5171 43.0108C47.9105 43.0726 47.3003 42.9367 46.7757 42.6232L35.038 35.286C33.9113 34.5448 32.5551 34.2446 31.2245 34.442C29.8939 34.6394 28.6806 35.3207 27.8128 36.3579L23.8843 41.1279C23.0124 42.1662 22.5505 43.4925 22.5867 44.8531C22.6229 46.2138 23.1549 47.5131 24.0807 48.5026L33.1534 59.0072C33.5558 59.481 33.7963 60.0731 33.8393 60.6958C33.8824 61.3184 33.7256 61.9384 33.3923 62.4641C32.4845 63.9219 31.6192 65.4547 30.8335 66.9875C30.5395 67.5389 30.0802 67.9821 29.5213 68.2537C28.9624 68.5252 28.3327 68.611 27.7225 68.4989L14.1798 65.8567C12.8686 65.5372 11.4868 65.7164 10.2981 66.3599C9.10937 67.0035 8.19696 68.0663 7.73498 69.3457L5.61147 75.1768C5.14091 76.4537 5.15129 77.8606 5.64064 79.1302C6.12998 80.3999 7.06421 81.4438 8.26585 82.0638L20.3592 88.8436C20.9031 89.1466 21.3345 89.6201 21.5883 90.1925C21.8421 90.7648 21.9045 91.4051 21.7661 92.0164L21.644 92.681C21.3626 94.1816 21.1131 95.6019 20.8636 97.1133C20.7792 97.7269 20.5047 98.2979 20.0794 98.7446C19.6542 99.1912 19.0999 99.4907 18.4959 99.6001L4.85231 101.824C3.51953 101.991 2.29226 102.641 1.39945 103.654C0.506638 104.667 0.00925571 105.973 9.05181e-05 107.329V113.535C-0.00768194 114.897 0.485337 116.213 1.38369 117.229C2.28204 118.244 3.5218 118.888 4.86293 119.034L18.4959 121.253C19.1085 121.353 19.6723 121.651 20.103 122.103C20.5337 122.554 20.808 123.134 20.8848 123.755C21.1449 125.449 21.4157 127.196 21.7873 128.858C21.907 129.462 21.8369 130.089 21.5865 130.651C21.3362 131.213 20.9183 131.682 20.3911 131.993L8.30301 138.783C7.10218 139.401 6.16823 140.443 5.67881 141.711C5.18939 142.979 5.17865 144.384 5.64863 145.66L7.77214 151.502C8.23306 152.78 9.14447 153.843 10.3323 154.487C11.5201 155.13 12.9012 155.31 14.2117 154.991L27.7756 152.338C28.3821 152.227 29.0077 152.314 29.5627 152.584C30.1177 152.855 30.5736 153.296 30.8653 153.844C31.6616 155.344 32.5216 156.866 33.4135 158.356C33.7409 158.889 33.8945 159.511 33.8526 160.136C33.8107 160.761 33.5754 161.357 33.1799 161.84L24.155 172.366C23.2289 173.352 22.691 174.645 22.6421 176.003C22.5932 177.361 23.0368 178.69 23.8896 179.741L27.8234 184.516C28.6803 185.564 29.892 186.254 31.2238 186.452C32.5556 186.65 33.9128 186.342 35.0327 185.588L46.9084 178.39C47.435 178.072 48.049 177.933 48.6598 177.993C49.2707 178.054 49.8459 178.312 50.3007 178.728C51.6173 179.891 52.9551 181.011 54.2133 182.045C54.6962 182.43 55.0451 182.96 55.2093 183.559C55.3735 184.157 55.3444 184.793 55.1264 185.374L50.2105 198.451C49.6751 199.699 49.6124 201.101 50.0342 202.393C50.456 203.684 51.333 204.774 52.4986 205.456L57.8657 208.586C59.0315 209.265 60.4046 209.487 61.7221 209.208C63.0395 208.929 64.2088 208.169 65.006 207.074L73.7921 196.168C74.53 195.24 75.7032 194.828 76.5739 195.181C78.416 195.953 79.6529 196.387 81.8455 197.127C82.4295 197.32 82.9374 197.695 83.2955 198.199C83.6535 198.704 83.8429 199.31 83.8363 199.93L83.6239 213.892C83.5523 215.255 83.9743 216.599 84.8114 217.672C85.6485 218.745 86.8434 219.474 88.1735 219.723L94.2521 220.795C95.5766 221.027 96.9396 220.765 98.0871 220.058C99.2347 219.351 100.089 218.247 100.49 216.952L105.002 203.676C105.209 203.087 105.596 202.58 106.108 202.228C106.619 201.876 107.229 201.698 107.848 201.72H113.024C113.638 201.709 114.24 201.893 114.745 202.246C115.25 202.599 115.632 203.103 115.838 203.687L120.334 216.909C120.682 218.057 121.386 219.062 122.341 219.776C123.297 220.491 124.454 220.878 125.643 220.88C125.96 220.881 126.276 220.852 126.588 220.795L132.677 219.723C134 219.478 135.189 218.756 136.025 217.693C136.861 216.629 137.286 215.296 137.221 213.94L137.009 199.919C137.005 199.302 137.196 198.699 137.553 198.198C137.911 197.697 138.418 197.323 139 197.132C141.038 196.441 142.466 195.884 143.73 195.396L144.048 195.267C145.673 194.699 146.453 195.342 146.952 195.969L155.844 207.026C156.641 208.12 157.81 208.878 159.126 209.157C160.442 209.436 161.814 209.215 162.979 208.537L168.325 205.413C169.495 204.731 170.374 203.638 170.796 202.343C171.219 201.048 171.153 199.641 170.613 198.392L165.708 185.347C165.492 184.766 165.462 184.13 165.623 183.531C165.784 182.932 166.128 182.399 166.605 182.008C167.895 180.936 169.217 179.864 170.534 178.674C170.989 178.26 171.563 178.004 172.173 177.945C172.783 177.885 173.395 178.024 173.921 178.342L185.807 185.524C186.934 186.265 188.29 186.565 189.621 186.368C190.951 186.17 192.165 185.489 193.032 184.452L196.961 179.682C197.832 178.644 198.294 177.319 198.258 175.959C198.222 174.6 197.69 173.301 196.765 172.312L187.708 161.77C187.305 161.297 187.065 160.704 187.022 160.082C186.979 159.459 187.136 158.839 187.469 158.313C188.377 156.861 189.242 155.328 190.028 153.79C190.323 153.24 190.783 152.799 191.341 152.527C191.9 152.256 192.529 152.169 193.139 152.279L206.665 154.942C207.977 155.262 209.358 155.083 210.547 154.439C211.736 153.796 212.648 152.733 213.11 151.453L215.207 145.622C215.677 144.346 215.667 142.94 215.178 141.671C214.688 140.403 213.754 139.36 212.553 138.741L200.449 131.95C199.913 131.644 199.488 131.172 199.239 130.603C198.989 130.035 198.928 129.4 199.063 128.793L199.185 128.123C199.467 126.623 199.716 125.208 199.966 123.696C200.05 123.083 200.325 122.512 200.75 122.065C201.175 121.618 201.729 121.319 202.333 121.21L215.977 118.991C217.313 118.827 218.544 118.177 219.44 117.163C220.336 116.149 220.836 114.84 220.845 113.481V107.205ZM65.6112 166.878C57.2346 160.073 50.4805 151.454 45.8482 141.659C41.2159 131.863 38.8241 121.141 38.8496 110.287C38.8751 99.4323 41.3172 88.7224 45.9954 78.9492C50.6736 69.1759 57.4682 60.5894 65.8767 53.8246L97.7293 110.426L65.6112 166.878ZM110.423 182.871C101.618 182.879 92.889 181.234 84.6804 178.02L116.793 121.601H181.146C175.832 156.255 146.145 182.871 110.423 182.871ZM116.825 99.316L84.9989 42.7733C93.1159 39.6417 101.733 38.0395 110.423 38.0462C146.145 38.0462 175.832 64.6615 181.146 99.316H116.825Z" fill="white" stroke="#343434" stroke-width="4" mask="url(#path-1-inside-1_1_40)"/>
</svg>
