<svg width="120" height="119" viewBox="0 0 120 119" fill="none" xmlns="http://www.w3.org/2000/svg">
<path d="M45.624 19.8733L46.5277 19.6022L46.8932 18.7324L53.7727 2.35907H65.9034L72.7829 18.7324L73.09 19.4633L73.8145 19.7853C74.4539 20.0695 75.1339 20.3914 75.841 20.7264L75.853 20.7321C76.5471 21.0609 77.2677 21.4022 77.9554 21.7078L78.7453 22.0589L79.5424 21.7241L95.9021 14.8502L104.65 23.5978L97.7759 39.9576L97.3993 40.8538L97.8714 41.7036C98.5926 43.0018 99.2605 44.3523 99.6449 45.5056L99.9316 46.3658L100.768 46.717L117.141 53.5966V65.7272L100.768 72.6068L100.037 72.9139L99.7147 73.6384C99.4305 74.2778 99.1085 74.9577 98.7735 75.6649L98.7677 75.6772C98.439 76.3712 98.0977 77.0917 97.7921 77.7792L97.441 78.5692L97.7759 79.3662L104.65 95.726L95.9021 104.474L79.5424 97.5997L78.6461 97.2232L77.7963 97.6953C76.8684 98.2108 75.8837 98.6377 74.8416 99.0894C74.5053 99.2353 74.1629 99.3837 73.8145 99.5385L73.09 99.8605L72.7829 100.591L65.9034 116.965H53.7727L46.8932 100.591L46.569 99.8199L45.7921 99.5092C45.1229 99.2415 44.474 98.9351 43.7984 98.6064C43.6729 98.5453 43.5453 98.4829 43.416 98.4197C42.8691 98.1522 42.2925 97.8701 41.7207 97.616L40.9307 97.2649L40.1337 97.5997L23.7739 104.474L15.0263 95.726L21.9002 79.3662L22.2562 78.519L21.8452 77.6971C21.1025 76.2117 20.5471 75.0988 19.9908 73.7079L19.68 72.9309L18.9085 72.6068L2.53522 65.7272V53.5966L18.9085 46.717L19.68 46.3929L19.9908 45.6159C20.5471 44.225 21.1025 43.1121 21.8452 41.6267L22.2562 40.8048L21.9002 39.9576L15.0263 23.5978L23.7739 14.8502L40.1337 21.7241L41.03 22.1006L41.8797 21.6285C43.2413 20.8721 44.3864 20.2446 45.624 19.8733ZM84.0211 59.514C84.0211 46.1348 73.2173 35.3309 59.838 35.3309C46.4588 35.3309 35.6549 46.1348 35.6549 59.514C35.6549 72.8932 46.4588 83.6971 59.838 83.6971C73.2173 83.6971 84.0211 72.8932 84.0211 59.514Z" fill="#00FFF0" stroke="#343434" stroke-width="4"/>
</svg>
