<svg width="48" height="48" viewBox="0 0 48 48" fill="none" xmlns="http://www.w3.org/2000/svg">
<path d="M17.8636 1.5V7.63636M30.1364 1.5V7.63636M17.8636 40.3636V46.5M30.1364 40.3636V46.5M40.3636 17.8636H46.5M40.3636 28.0909H46.5M1.5 17.8636H7.63636M1.5 28.0909H7.63636M11.7273 7.63636H36.2727C38.5321 7.63636 40.3636 9.46793 40.3636 11.7273V36.2727C40.3636 38.5321 38.5321 40.3636 36.2727 40.3636H11.7273C9.46793 40.3636 7.63636 38.5321 7.63636 36.2727V11.7273C7.63636 9.46793 9.46793 7.63636 11.7273 7.63636ZM17.8636 17.8636H30.1364V30.1364H17.8636V17.8636Z" stroke="#B8B8B8" stroke-width="2" stroke-linecap="round" stroke-linejoin="round"/>
</svg>
