<svg width="50" height="20" viewBox="0 0 50 20" fill="none" xmlns="http://www.w3.org/2000/svg">
<path d="M3.77335 6.09609C3.67597 6.09609 3.65163 6.0474 3.70032 5.97437L4.21155 5.31708C4.26024 5.24405 4.38196 5.19536 4.47933 5.19536H13.1702C13.2676 5.19536 13.2919 5.26839 13.2432 5.34142L12.8294 5.97437C12.7807 6.0474 12.659 6.12044 12.586 6.12044L3.77335 6.09609Z" fill="#00ACD7"/>
<path d="M0.097377 8.33576C2.03144e-07 8.33576 -0.0243443 8.28707 0.0243441 8.21404L0.535572 7.55674C0.584261 7.48371 0.705982 7.43502 0.803359 7.43502H11.9043C12.0017 7.43502 12.0504 7.50805 12.026 7.58109L11.8313 8.16535C11.8069 8.26273 11.7096 8.31141 11.6122 8.31141L0.097377 8.33576Z" fill="#00ACD7"/>
<path d="M5.98867 10.5754C5.8913 10.5754 5.86695 10.5024 5.91564 10.4294L6.25646 9.82076C6.30515 9.74772 6.40252 9.67469 6.4999 9.67469H11.3687C11.4661 9.67469 11.5148 9.74772 11.5148 9.8451L11.4661 10.4294C11.4661 10.5267 11.3687 10.5998 11.2957 10.5998L5.98867 10.5754Z" fill="#00ACD7"/>
<path d="M31.258 5.6579C29.7243 6.0474 28.6775 6.33953 27.1681 6.72904C26.803 6.82642 26.7786 6.85076 26.4621 6.4856C26.097 6.07175 25.8292 5.80396 25.318 5.56052C23.7843 4.80585 22.2993 5.02495 20.9117 5.92568C19.2563 6.99683 18.4042 8.5792 18.4286 10.5511C18.4529 12.4986 19.7918 14.1053 21.715 14.3731C23.3704 14.5922 24.758 14.008 25.8535 12.7664C26.0726 12.4986 26.2674 12.2065 26.5108 11.8657C25.6344 11.8657 24.539 11.8657 21.8124 11.8657C21.3012 11.8657 21.1795 11.5492 21.3499 11.1353C21.6663 10.3807 22.2506 9.11477 22.5914 8.48182C22.6644 8.33576 22.8349 8.09232 23.2 8.09232C24.4416 8.09232 29.0183 8.09232 32.0613 8.09232C32.0126 8.74961 32.0126 9.4069 31.9152 10.0642C31.6475 11.817 30.9902 13.4237 29.919 14.8357C28.1662 17.1484 25.8779 18.5847 22.9809 18.9742C20.5952 19.2906 18.3799 18.8281 16.4323 17.3675C14.6309 16.0042 13.6084 14.2027 13.3406 11.963C13.0241 9.30952 13.8032 6.92379 15.4099 4.83019C17.1383 2.56618 19.4267 1.12987 22.2263 0.618646C24.5146 0.204795 26.7056 0.472581 28.6775 1.81151C29.9677 2.66356 30.8928 3.83208 31.5014 5.24404C31.6475 5.46314 31.5501 5.58486 31.258 5.6579Z" fill="#00ACD7"/>
<path d="M39.3159 19.1202C37.1006 19.0716 35.08 18.4386 33.3759 16.9779C31.9396 15.7364 31.0389 14.154 30.7467 12.2795C30.3085 9.52862 31.0632 7.09421 32.7186 4.92757C34.4957 2.59053 36.638 1.37332 39.535 0.862089C42.0181 0.423894 44.3551 0.667335 46.4731 2.10364C48.3963 3.41823 49.5891 5.19536 49.9056 7.5324C50.3195 10.8189 49.37 13.4967 47.106 15.7851C45.4993 17.4161 43.5274 18.4386 41.2634 18.9011C40.6061 19.0229 39.9488 19.0472 39.3159 19.1202ZM45.1098 9.28518C45.0855 8.96871 45.0855 8.72527 45.0368 8.48182C44.5986 6.07175 42.3832 4.70847 40.0705 5.24405C37.8065 5.75527 36.3459 7.19158 35.8103 9.47994C35.3721 11.3788 36.2972 13.302 38.05 14.081C39.3889 14.6652 40.7278 14.5922 42.0181 13.9349C43.9413 12.9368 44.9881 11.3788 45.1098 9.28518Z" fill="#00ACD7"/>
</svg>
