<svg width="51" height="20" viewBox="0 0 51 20" fill="none" xmlns="http://www.w3.org/2000/svg">
<path d="M4.16714 6.54887C4.06976 6.54887 4.04542 6.50018 4.09411 6.42715L4.60534 5.76985C4.65402 5.69682 4.77574 5.64813 4.87312 5.64813H13.564C13.6614 5.64813 13.6857 5.72116 13.637 5.7942L13.2232 6.42715C13.1745 6.50018 13.0528 6.57321 12.9797 6.57321L4.16714 6.54887Z" fill="white"/>
<path d="M0.491176 8.78854C0.393799 8.78854 0.369455 8.73985 0.418143 8.66682L0.929371 8.00952C0.97806 7.93649 1.09978 7.8878 1.19716 7.8878H12.2981C12.3955 7.8878 12.4442 7.96083 12.4198 8.03387L12.2251 8.61813C12.2007 8.7155 12.1034 8.76419 12.006 8.76419L0.491176 8.78854Z" fill="white"/>
<path d="M6.38247 11.0282C6.2851 11.0282 6.26075 10.9552 6.30944 10.8821L6.65026 10.2735C6.69895 10.2005 6.79632 10.1275 6.8937 10.1275H11.7625C11.8599 10.1275 11.9086 10.2005 11.9086 10.2979L11.8599 10.8821C11.8599 10.9795 11.7625 11.0526 11.6895 11.0526L6.38247 11.0282Z" fill="white"/>
<path d="M31.6518 6.11067C30.1181 6.50018 29.0713 6.79231 27.5619 7.18181C27.1968 7.27919 27.1724 7.30354 26.856 6.93837C26.4908 6.52452 26.223 6.25674 25.7118 6.01329C24.1781 5.25862 22.6931 5.47772 21.3055 6.37846C19.6501 7.4496 18.798 9.03197 18.8224 11.0039C18.8467 12.9514 20.1857 14.5581 22.1088 14.8259C23.7642 15.045 25.1519 14.4607 26.2474 13.2192C26.4665 12.9514 26.6612 12.6593 26.9046 12.3184C26.0283 12.3184 24.9328 12.3184 22.2062 12.3184C21.695 12.3184 21.5733 12.002 21.7437 11.5881C22.0602 10.8334 22.6444 9.56755 22.9852 8.9346C23.0583 8.78853 23.2287 8.54509 23.5938 8.54509C24.8354 8.54509 29.4121 8.54509 32.4551 8.54509C32.4064 9.20238 32.4064 9.85968 32.3091 10.517C32.0413 12.2698 31.384 13.8765 30.3128 15.2884C28.5601 17.6011 26.2717 19.0374 23.3747 19.4269C20.989 19.7434 18.7737 19.2809 16.8261 17.8202C15.0247 16.457 14.0022 14.6555 13.7344 12.4158C13.418 9.7623 14.197 7.37657 15.8037 5.28297C17.5321 3.01896 19.8205 1.58265 22.6201 1.07142C24.9084 0.657569 27.0994 0.925355 29.0713 2.26429C30.3615 3.11633 31.2866 4.28485 31.8952 5.69682C32.0413 5.91592 31.9439 6.03764 31.6518 6.11067Z" fill="white"/>
<path d="M39.7097 19.573C37.4944 19.5243 35.4738 18.8914 33.7697 17.4307C32.3334 16.1892 31.4327 14.6068 31.1405 12.7323C30.7024 9.98139 31.457 7.54697 33.1124 5.38034C34.8896 3.0433 37.0318 1.82609 39.9288 1.31486C42.4119 0.876662 44.749 1.1201 46.8669 2.55641C48.7901 3.871 49.983 5.64812 50.2994 7.98517C50.7133 11.2716 49.7639 13.9495 47.4998 16.2378C45.8931 17.8689 43.9212 18.8914 41.6572 19.3539C40.9999 19.4756 40.3427 19.5 39.7097 19.573ZM45.5036 9.73795C45.4793 9.42147 45.4793 9.17803 45.4306 8.93459C44.9924 6.52452 42.7771 5.16124 40.4644 5.69681C38.2004 6.20804 36.7397 7.64435 36.2041 9.9327C35.7659 11.8316 36.691 13.7547 38.4438 14.5338C39.7827 15.118 41.1217 15.045 42.4119 14.3877C44.3351 13.3896 45.3819 11.8316 45.5036 9.73795Z" fill="white"/>
</svg>
