<svg width="47" height="48" viewBox="0 0 47 48" fill="none" xmlns="http://www.w3.org/2000/svg">
<path id="Vector" d="M28.7064 11.5652C28.2726 12.0078 28.0296 12.6028 28.0296 13.2226C28.0296 13.8424 28.2726 14.4375 28.7064 14.8801L32.4949 18.6685C32.9375 19.1024 33.5326 19.3454 34.1524 19.3454C34.7721 19.3454 35.3672 19.1024 35.8098 18.6685L44.7364 9.74195C45.9271 12.373 46.2876 15.3045 45.7699 18.1456C45.2522 20.9868 43.881 23.6027 41.8389 25.6447C39.7968 27.6868 37.1809 29.058 34.3398 29.5757C31.4986 30.0934 28.5672 29.7329 25.9361 28.5423L9.57457 44.9037C8.6326 45.8457 7.35502 46.3749 6.02287 46.3749C4.69072 46.3749 3.41313 45.8457 2.47116 44.9037C1.52919 43.9618 1 42.6842 1 41.352C1 40.0199 1.52919 38.7423 2.47116 37.8003L18.8327 21.4389C17.6421 18.8078 17.2816 15.8764 17.7992 13.0352C18.3169 10.1941 19.6881 7.57815 21.7302 5.53608C23.7723 3.49401 26.3882 2.12278 29.2294 1.60511C32.0705 1.08745 35.002 1.44794 37.633 2.63856L28.7064 11.5652Z" stroke="#B8B8B8" stroke-width="2" stroke-linecap="round" stroke-linejoin="round"/>
</svg>
