<svg width="47" height="42" viewBox="0 0 47 42" fill="none" xmlns="http://www.w3.org/2000/svg">
<path d="M11.3148 5.22222C11.9544 5.22231 12.5716 5.45711 13.0496 5.88209C13.5275 6.30707 13.8328 6.89268 13.9076 7.52783L13.9259 7.83333V33.9445C13.9252 34.61 13.6704 35.2501 13.2135 35.734C12.7566 36.218 12.1322 36.5092 11.4678 36.5482C10.8035 36.5872 10.1493 36.371 9.63892 35.9439C9.12857 35.5167 8.80059 34.9108 8.72198 34.25L8.7037 33.9445V7.83333C8.7037 7.14082 8.9788 6.47668 9.46848 5.987C9.95816 5.49732 10.6223 5.22222 11.3148 5.22222Z" fill="black"/>
<path d="M2.61111 7.83333C3.25066 7.83342 3.86793 8.06822 4.34586 8.4932C4.82378 8.91818 5.12912 9.50379 5.20394 10.1389L5.22222 10.4444V31.3333C5.22148 31.9988 4.96665 32.639 4.50978 33.1229C4.05292 33.6068 3.42851 33.8981 2.76414 33.9371C2.09976 33.9761 1.44556 33.7599 0.935215 33.3328C0.424865 32.9056 0.0968816 32.2997 0.0182777 31.6388L0 31.3333V10.4444C0 9.75194 0.275098 9.08779 0.764776 8.59811C1.25445 8.10843 1.9186 7.83333 2.61111 7.83333Z" fill="black"/>
<path d="M39.6019 0H24.8056C22.8434 0 20.9617 0.825296 19.5743 2.29433C18.1869 3.76337 17.4074 5.7558 17.4074 7.83333V33.9444C17.4074 36.022 18.1869 38.0144 19.5743 39.4834C20.9617 40.9525 22.8434 41.7778 24.8056 41.7778H39.6019C41.564 41.7778 43.4457 40.9525 44.8331 39.4834C46.2206 38.0144 47 36.022 47 33.9444V7.83333C47 5.7558 46.2206 3.76337 44.8331 2.29433C43.4457 0.825296 41.564 0 39.6019 0Z" fill="black"/>
<path d="M28.8038 29.5926L22.276 11.546H28.4094L34.6516 29.5926H28.8038ZM35.386 29.0486L32.6797 21.1065L35.59 11.546H41.6282L35.386 29.0486Z" fill="white"/>
</svg>
