<svg width="184" height="42" viewBox="0 0 184 42" fill="none" xmlns="http://www.w3.org/2000/svg">
<path d="M58.0486 30.5969C56.514 30.5969 55.1932 30.2861 54.086 29.6646C52.9853 29.0365 52.1371 28.1495 51.5415 27.0034C50.9458 25.8509 50.648 24.488 50.648 22.9147C50.648 21.3802 50.9458 20.0334 51.5415 18.8745C52.1371 17.7155 52.9756 16.8123 54.0569 16.1648C55.1446 15.5173 56.4202 15.1936 57.8834 15.1936C58.8676 15.1936 59.7838 15.3522 60.632 15.6695C61.4866 15.9803 62.2312 16.4497 62.8657 17.0777C63.5067 17.7058 64.0053 18.4957 64.3614 19.4475C64.7175 20.3928 64.8956 21.4999 64.8956 22.769V23.9053H52.299V21.3413H61.001C61.001 20.7456 60.8715 20.218 60.6125 19.7583C60.3535 19.2985 59.9942 18.9392 59.5345 18.6802C59.0813 18.4147 58.5536 18.282 57.9514 18.282C57.3234 18.282 56.7666 18.4277 56.281 18.7191C55.8018 19.0039 55.4263 19.3892 55.1544 19.8748C54.8824 20.3539 54.7432 20.8881 54.7367 21.4773V23.915C54.7367 24.6531 54.8727 25.2909 55.1446 25.8283C55.4231 26.3657 55.8148 26.7801 56.3198 27.0714C56.8248 27.3628 57.4237 27.5085 58.1165 27.5085C58.5762 27.5085 58.9971 27.4437 59.3791 27.3142C59.7611 27.1847 60.0881 26.9905 60.36 26.7315C60.632 26.4725 60.8392 26.1553 60.9816 25.7797L64.8081 26.0322C64.6139 26.9516 64.2157 27.7545 63.6136 28.4408C63.0179 29.1207 62.2474 29.6516 61.3021 30.0336C60.3633 30.4091 59.2787 30.5969 58.0486 30.5969ZM67.5955 30.3055V15.3878H71.6066V17.9907H71.762C72.0339 17.0648 72.4904 16.3655 73.1314 15.8929C73.7724 15.4137 74.5105 15.1742 75.3457 15.1742C75.5529 15.1742 75.7763 15.1871 76.0159 15.213C76.2554 15.2389 76.4659 15.2745 76.6471 15.3198V18.991C76.4529 18.9327 76.1842 18.8809 75.841 18.8356C75.4979 18.7903 75.1839 18.7676 74.899 18.7676C74.2904 18.7676 73.7465 18.9004 73.2674 19.1658C72.7947 19.4248 72.4192 19.7874 72.1408 20.2536C71.8688 20.7197 71.7328 21.2571 71.7328 21.8658V30.3055H67.5955ZM91.1982 19.6417L87.4105 19.8748C87.3458 19.5511 87.2066 19.2597 86.9929 19.0007C86.7793 18.7352 86.4976 18.5248 86.148 18.3694C85.8048 18.2076 85.3937 18.1266 84.9145 18.1266C84.2735 18.1266 83.7329 18.2626 83.2926 18.5345C82.8523 18.8 82.6322 19.1561 82.6322 19.6029C82.6322 19.959 82.7746 20.26 83.0595 20.5061C83.3444 20.7521 83.8333 20.9496 84.5261 21.0985L87.226 21.6424C88.6763 21.9402 89.7576 22.4194 90.4698 23.0798C91.1821 23.7402 91.5382 24.6078 91.5382 25.6826C91.5382 26.6603 91.25 27.5182 90.6738 28.2563C90.104 28.9944 89.3206 29.5707 88.3235 29.985C87.3328 30.393 86.1901 30.5969 84.8951 30.5969C82.9203 30.5969 81.347 30.1858 80.1751 29.3635C79.0096 28.5347 78.3265 27.4081 78.1258 25.9837L82.1952 25.77C82.3182 26.3722 82.616 26.8319 83.0887 27.1491C83.5613 27.4599 84.1667 27.6153 84.9048 27.6153C85.63 27.6153 86.2127 27.4761 86.653 27.1977C87.0998 26.9128 87.3264 26.547 87.3328 26.1002C87.3264 25.7247 87.1677 25.4171 86.857 25.1776C86.5462 24.9315 86.067 24.7438 85.4196 24.6143L82.8362 24.0995C81.3793 23.8082 80.2948 23.3032 79.5826 22.5845C78.8769 21.8658 78.524 20.9496 78.524 19.8359C78.524 18.8777 78.783 18.0522 79.301 17.3594C79.8254 16.6666 80.5603 16.1324 81.5056 15.7569C82.4574 15.3813 83.571 15.1936 84.8466 15.1936C86.7307 15.1936 88.2134 15.5918 89.2947 16.3882C90.3824 17.1846 91.017 18.2691 91.1982 19.6417ZM94.1434 30.3055V15.3878H98.2808V30.3055H94.1434ZM96.2218 13.4648C95.6067 13.4648 95.079 13.2609 94.6387 12.853C94.2049 12.4386 93.988 11.9433 93.988 11.367C93.988 10.7973 94.2049 10.3084 94.6387 9.90051C95.079 9.48613 95.6067 9.27894 96.2218 9.27894C96.8369 9.27894 97.3614 9.48613 97.7952 9.90051C98.2354 10.3084 98.4556 10.7973 98.4556 11.367C98.4556 11.9433 98.2354 12.4386 97.7952 12.853C97.3614 13.2609 96.8369 13.4648 96.2218 13.4648ZM108.335 30.5969C106.827 30.5969 105.522 30.2764 104.421 29.6354C103.327 28.9879 102.482 28.088 101.886 26.9355C101.291 25.7765 100.993 24.433 100.993 22.905C100.993 21.364 101.291 20.0172 101.886 18.8647C102.482 17.7058 103.327 16.8058 104.421 16.1648C105.522 15.5173 106.827 15.1936 108.335 15.1936C109.844 15.1936 111.145 15.5173 112.239 16.1648C113.34 16.8058 114.188 17.7058 114.784 18.8647C115.38 20.0172 115.677 21.364 115.677 22.905C115.677 24.433 115.38 25.7765 114.784 26.9355C114.188 28.088 113.34 28.9879 112.239 29.6354C111.145 30.2764 109.844 30.5969 108.335 30.5969ZM108.355 27.3919C109.041 27.3919 109.614 27.1977 110.074 26.8092C110.533 26.4142 110.88 25.8768 111.113 25.197C111.352 24.5172 111.472 23.7434 111.472 22.8758C111.472 22.0082 111.352 21.2345 111.113 20.5546C110.88 19.8748 110.533 19.3374 110.074 18.9424C109.614 18.5475 109.041 18.35 108.355 18.35C107.662 18.35 107.079 18.5475 106.606 18.9424C106.14 19.3374 105.787 19.8748 105.548 20.5546C105.315 21.2345 105.198 22.0082 105.198 22.8758C105.198 23.7434 105.315 24.5172 105.548 25.197C105.787 25.8768 106.14 26.4142 106.606 26.8092C107.079 27.1977 107.662 27.3919 108.355 27.3919ZM122.505 21.6812V30.3055H118.368V15.3878H122.311V18.0198H122.486C122.816 17.1522 123.369 16.4659 124.146 15.9608C124.923 15.4493 125.865 15.1936 126.973 15.1936C128.009 15.1936 128.912 15.4202 129.682 15.8734C130.453 16.3267 131.052 16.9741 131.479 17.8158C131.906 18.6511 132.12 19.6482 132.12 20.8072V30.3055H127.983V21.5453C127.989 20.6323 127.756 19.9201 127.283 19.4086C126.811 18.8906 126.16 18.6317 125.331 18.6317C124.774 18.6317 124.282 18.7514 123.855 18.991C123.434 19.2306 123.104 19.5802 122.864 20.0399C122.631 20.4931 122.512 21.0402 122.505 21.6812ZM139.635 30.5872C138.683 30.5872 137.835 30.4221 137.09 30.0919C136.346 29.7552 135.756 29.2599 135.323 28.6059C134.895 27.9455 134.682 27.1232 134.682 26.1391C134.682 25.3103 134.834 24.6143 135.138 24.051C135.442 23.4877 135.857 23.0345 136.381 22.6913C136.906 22.3481 137.501 22.0891 138.168 21.9143C138.842 21.7395 139.547 21.6165 140.285 21.5453C141.153 21.4546 141.852 21.3705 142.383 21.2928C142.914 21.2086 143.299 21.0856 143.539 20.9237C143.779 20.7618 143.898 20.5223 143.898 20.205V20.1467C143.898 19.5316 143.704 19.0557 143.316 18.7191C142.934 18.3824 142.39 18.214 141.684 18.214C140.939 18.214 140.347 18.3791 139.907 18.7093C139.466 19.0331 139.175 19.441 139.033 19.9331L135.206 19.6223C135.4 18.7158 135.782 17.9324 136.352 17.272C136.922 16.6051 137.657 16.0936 138.557 15.7375C139.463 15.3749 140.512 15.1936 141.703 15.1936C142.532 15.1936 143.325 15.2907 144.083 15.4849C144.847 15.6792 145.523 15.9803 146.113 16.3882C146.708 16.7961 147.178 17.3205 147.521 17.9615C147.864 18.596 148.036 19.3568 148.036 20.2439V30.3055H144.112V28.2369H143.995C143.756 28.7031 143.435 29.1142 143.034 29.4703C142.633 29.8199 142.15 30.0951 141.587 30.2958C141.024 30.4901 140.373 30.5872 139.635 30.5872ZM140.82 27.7319C141.428 27.7319 141.966 27.6121 142.432 27.3725C142.898 27.1265 143.264 26.7963 143.529 26.3819C143.795 25.9675 143.927 25.4981 143.927 24.9736V23.3906C143.798 23.4747 143.62 23.5524 143.393 23.6237C143.173 23.6884 142.924 23.7499 142.645 23.8082C142.367 23.86 142.089 23.9085 141.81 23.9539C141.532 23.9927 141.279 24.0283 141.053 24.0607C140.567 24.1319 140.143 24.2452 139.78 24.4006C139.418 24.556 139.136 24.7664 138.935 25.0319C138.735 25.2909 138.634 25.6146 138.634 26.0031C138.634 26.5664 138.838 26.997 139.246 27.2948C139.661 27.5862 140.185 27.7319 140.82 27.7319ZM156.743 30.5483C155.609 30.5483 154.583 30.257 153.664 29.6743C152.751 29.0851 152.026 28.2207 151.488 27.0811C150.957 25.9351 150.692 24.5301 150.692 22.8661C150.692 21.1568 150.967 19.7356 151.517 18.6025C152.068 17.463 152.799 16.6115 153.712 16.0482C154.632 15.4785 155.639 15.1936 156.733 15.1936C157.568 15.1936 158.264 15.336 158.821 15.6209C159.384 15.8993 159.837 16.249 160.181 16.6698C160.53 17.0842 160.796 17.4921 160.977 17.8935H161.103V10.4152H165.231V30.3055H161.152V27.9164H160.977C160.783 28.3308 160.508 28.7419 160.151 29.1498C159.802 29.5512 159.345 29.8847 158.782 30.1502C158.225 30.4156 157.545 30.5483 156.743 30.5483ZM158.054 27.256C158.721 27.256 159.284 27.0747 159.744 26.7121C160.21 26.343 160.566 25.8283 160.812 25.1679C161.064 24.5074 161.191 23.7337 161.191 22.8467C161.191 21.9597 161.068 21.1892 160.822 20.5352C160.576 19.8813 160.219 19.3762 159.753 19.0201C159.287 18.664 158.721 18.486 158.054 18.486C157.374 18.486 156.801 18.6705 156.335 19.0396C155.868 19.4086 155.516 19.9201 155.276 20.5741C155.036 21.228 154.917 21.9855 154.917 22.8467C154.917 23.7143 155.036 24.4815 155.276 25.1484C155.522 25.8089 155.875 26.3268 156.335 26.7024C156.801 27.0714 157.374 27.256 158.054 27.256ZM175.431 30.5969C173.896 30.5969 172.576 30.2861 171.468 29.6646C170.368 29.0365 169.52 28.1495 168.924 27.0034C168.328 25.8509 168.03 24.488 168.03 22.9147C168.03 21.3802 168.328 20.0334 168.924 18.8745C169.52 17.7155 170.358 16.8123 171.439 16.1648C172.527 15.5173 173.803 15.1936 175.266 15.1936C176.25 15.1936 177.166 15.3522 178.014 15.6695C178.869 15.9803 179.614 16.4497 180.248 17.0777C180.889 17.7058 181.388 18.4957 181.744 19.4475C182.1 20.3928 182.278 21.4999 182.278 22.769V23.9053H169.681V21.3413H178.383C178.383 20.7456 178.254 20.218 177.995 19.7583C177.736 19.2985 177.377 18.9392 176.917 18.6802C176.464 18.4147 175.936 18.282 175.334 18.282C174.706 18.282 174.149 18.4277 173.663 18.7191C173.184 19.0039 172.809 19.3892 172.537 19.8748C172.265 20.3539 172.126 20.8881 172.119 21.4773V23.915C172.119 24.6531 172.255 25.2909 172.527 25.8283C172.805 26.3657 173.197 26.7801 173.702 27.0714C174.207 27.3628 174.806 27.5085 175.499 27.5085C175.959 27.5085 176.379 27.4437 176.761 27.3142C177.143 27.1847 177.47 26.9905 177.742 26.7315C178.014 26.4725 178.222 26.1553 178.364 25.7797L182.191 26.0322C181.996 26.9516 181.598 27.7545 180.996 28.4408C180.4 29.1207 179.63 29.6516 178.684 30.0336C177.746 30.4091 176.661 30.5969 175.431 30.5969Z" fill="black"/>
<path d="M11.117 6.01389C11.7454 6.01397 12.3519 6.2444 12.8215 6.66147C13.291 7.07854 13.591 7.65324 13.6645 8.27657L13.6825 8.57639V34.2014C13.6818 34.8545 13.4314 35.4827 12.9825 35.9576C12.5336 36.4326 11.9201 36.7184 11.2674 36.7566C10.6146 36.7949 9.97186 36.5828 9.47043 36.1636C8.969 35.7444 8.64675 35.1498 8.56952 34.5012L8.55156 34.2014V8.57639C8.55156 7.89677 8.82185 7.24499 9.30297 6.76442C9.78409 6.28386 10.4366 6.01389 11.117 6.01389Z" fill="black"/>
<path d="M2.56547 8.57639C3.19384 8.57647 3.80032 8.8069 4.26989 9.22397C4.73946 9.64104 5.03946 10.2157 5.11298 10.8391L5.13094 11.1389V31.6389C5.13021 32.292 4.87983 32.9202 4.43095 33.3951C3.98207 33.8701 3.36858 34.1559 2.71582 34.1941C2.06306 34.2324 1.4203 34.0203 0.918867 33.6011C0.417438 33.1819 0.0951881 32.5873 0.0179582 31.9387L0 31.6389V11.1389C0 10.4593 0.270289 9.80749 0.751408 9.32693C1.23253 8.84636 1.88506 8.57639 2.56547 8.57639Z" fill="black"/>
<path d="M38.9096 0.888885H24.372C22.4441 0.888885 20.5953 1.69882 19.2321 3.1405C17.8689 4.58219 17.1031 6.53753 17.1031 8.57639V34.2014C17.1031 36.2402 17.8689 38.1956 19.2321 39.6373C20.5953 41.079 22.4441 41.8889 24.372 41.8889H38.9096C40.8374 41.8889 42.6863 41.079 44.0494 39.6373C45.4126 38.1956 46.1784 36.2402 46.1784 34.2014V8.57639C46.1784 6.53753 45.4126 4.58219 44.0494 3.1405C42.6863 1.69882 40.8374 0.888885 38.9096 0.888885Z" fill="black"/>
<path d="M28.3003 29.9306L21.8867 12.2199H27.9128L34.0459 29.9306H28.3003ZM34.7674 29.3967L32.1084 21.6024L34.9679 12.2199H40.9005L34.7674 29.3967Z" fill="white"/>
</svg>
